<svg width="32" height="32" viewBox="0 0 32 32" fill="none" xmlns="http://www.w3.org/2000/svg">
<g clip-path="url(#clip0_2128_73122)">
<rect width="32" height="32" rx="5" fill="#97D6C3"/>
<path fill-rule="evenodd" clip-rule="evenodd" d="M9.10341 19.1518C8.28179 19.1518 7.49286 18.8226 6.91097 18.2415C6.32908 17.6582 6 16.8705 6 16.0484V9.10341C6 8.28129 6.32908 7.49145 6.91097 6.91036C7.49286 6.32928 8.27961 6 9.10341 6H16.0469C16.8685 6 17.6574 6.32928 18.2393 6.91036C18.8212 7.49145 19.1481 8.28129 19.1503 9.10341V15.7191L17.2978 16.7888H23.5983C24.2347 16.7888 24.8449 17.0427 25.2961 17.4925C25.7472 17.9423 26 18.5535 26 19.1906V23.5982C26 24.2352 25.745 24.8464 25.2961 25.2962C24.8449 25.746 24.2347 26 23.5983 26H19.1895C18.5531 26 17.9429 25.746 17.4918 25.2962C17.0406 24.8464 16.7878 24.2352 16.7878 23.5982V20.2236L18.6468 19.1497H9.10341M16.7878 16.7866V8.36307H8.36243V16.7888H16.7878V16.7866ZM23.5983 19.1497H19.1503V23.5982C19.1503 23.5982 19.1546 23.6176 19.1633 23.6262C19.1699 23.6326 19.1808 23.6369 19.1895 23.6391H23.5983C23.5983 23.6391 23.618 23.6348 23.6245 23.6262C23.631 23.6197 23.6354 23.609 23.6376 23.5982V19.1884C23.6376 19.1884 23.6332 19.1691 23.6245 19.1626C23.618 19.154 23.6071 19.1497 23.5983 19.1497Z" fill="#23322D"/>
</g>
<defs>
<clipPath id="clip0_2128_73122">
<rect width="32" height="32" fill="white"/>
</clipPath>
</defs>
</svg>
