<svg width="604" height="104" viewBox="0 0 604 104" fill="none" xmlns="http://www.w3.org/2000/svg">
<g clip-path="url(#clip0_2111_49263)">
<path d="M191.795 102.313H176.557V87.3504L176.095 83.2266V54.062C176.095 48.3614 174.72 44.4912 171.981 42.4513C169.34 40.4115 165.028 39.397 159.032 39.397C153.036 39.397 148.723 40.4666 146.082 42.6057C143.541 44.7448 142.276 48.3063 142.276 53.2902V55.5836H126.433V54.062C126.433 48.3614 127.808 43.3224 130.548 38.945C133.397 34.5675 137.303 31.1604 142.276 28.7126C147.359 26.1655 153.245 24.8975 159.956 24.8975C167.063 24.8975 172.96 26.2206 177.625 28.8669C182.3 31.5132 185.799 35.174 188.142 39.8601C190.574 44.4361 191.795 49.883 191.795 56.2011V102.324V102.313ZM148.371 103.835C141.561 103.835 135.829 102.104 131.153 98.6413C126.587 95.0798 124.299 90.0408 124.299 83.5243C124.299 79.2461 125.267 75.6846 127.192 72.8398C129.228 69.984 132.121 67.6464 135.884 65.816C139.646 63.9857 144.212 62.7066 149.592 62.0009L177.625 58.0315V69.6422L152.023 73.4573C147.656 74.0637 144.608 74.9789 142.881 76.2028C141.154 77.4267 140.295 79.4556 140.295 82.3114C140.295 85.1672 141.308 87.4055 143.343 88.7287C145.477 90.0518 148.932 90.7134 153.707 90.7134C157.359 90.7134 160.869 90.1511 164.224 89.0374C167.679 87.8135 170.517 85.8288 172.762 83.0832C174.995 80.2274 176.117 76.2579 176.117 71.1748L178.252 90.5701L175.809 90.4157C174.39 92.7533 172.41 94.9475 169.868 96.9874C167.426 99.0272 164.433 100.703 160.88 102.026C157.326 103.25 153.157 103.857 148.382 103.857L148.371 103.835Z" fill="#F1F9F6"/>
<path d="M278.104 102.313H261.645V58.1748C261.645 51.4598 260.38 46.6193 257.839 43.6642C255.297 40.6099 250.522 39.0883 243.514 39.0883C239.048 39.0883 235.384 39.7499 232.545 41.073C229.707 42.297 227.573 44.3258 226.142 47.1816C224.723 49.9272 224.008 53.6981 224.008 58.4836H221.115L219.739 40.621H223.392C224.514 37.8754 226.186 35.3283 228.42 32.9908C230.653 30.6532 233.503 28.7126 236.957 27.1909C240.511 25.6583 244.724 24.8975 249.598 24.8975C256.199 24.8975 261.59 26.1655 265.749 28.7126C269.919 31.2596 273.01 34.766 275.046 39.2537C277.081 43.7304 278.093 48.8797 278.093 54.6795V102.324L278.104 102.313ZM224.008 102.313H207.549V26.4191H222.633V49.1774L224.008 49.9382V102.313Z" fill="#F1F9F6"/>
<path d="M327.535 104C319.614 104 312.914 102.324 307.424 98.9611C301.934 95.5981 297.72 90.967 294.783 85.0679C291.944 79.1578 290.514 72.2885 290.514 64.4488C290.514 56.6091 291.988 49.7397 294.937 43.8296C297.984 37.8203 302.297 33.1892 307.886 29.9365C313.475 26.5735 320.23 24.8975 328.151 24.8975C334.851 24.8975 340.748 26.1655 345.831 28.7126C350.914 31.2596 354.82 34.8211 357.559 39.397C360.409 43.9729 361.828 49.3207 361.828 55.4293V56.8076H345.523V55.8924C345.523 50.291 343.994 46.2223 340.958 43.6752C338.009 41.0289 333.388 39.7058 327.095 39.7058C319.779 39.7058 314.553 41.7897 311.407 45.9687C308.359 50.0374 306.841 56.146 306.841 64.2944C306.841 72.4428 308.37 78.7499 311.407 82.9288C314.553 86.9975 319.79 89.0374 327.095 89.0374C333.388 89.0374 338.02 87.7694 340.958 85.2223C344.005 82.576 345.523 78.5073 345.523 73.0052V72.09H361.828V73.4683C361.828 79.3784 360.409 84.671 357.559 89.3461C354.721 93.9221 350.705 97.5387 345.523 100.185C340.44 102.732 334.455 104 327.546 104H327.535Z" fill="#F1F9F6"/>
<path d="M444.903 102.313H428.444V58.1747C428.444 51.4597 427.124 46.6192 424.483 43.6641C421.942 40.6098 417.222 39.0882 410.313 39.0882C403.404 39.0882 398.783 40.5657 395.538 43.5208C392.391 46.3766 390.818 51.4156 390.818 58.6378H387.924L387.77 39.0882H391.423C392.644 36.7506 394.316 34.5123 396.451 32.3732C398.684 30.1349 401.479 28.3486 404.834 27.0254C408.289 25.6031 412.249 24.8863 416.716 24.8863C423.416 24.8863 428.807 26.2095 432.867 28.8558C437.037 31.4029 440.073 34.9092 442.009 39.3969C443.946 43.8736 444.903 48.9126 444.903 54.514V102.313ZM390.807 102.313H374.348V0H390.807V102.313Z" fill="#F1F9F6"/>
<path d="M495.555 103.846C487.832 103.846 481.132 102.214 475.444 98.9611C469.756 95.5981 465.388 90.967 462.341 85.0679C459.293 79.0586 457.775 72.1341 457.775 64.2944C457.775 56.4547 459.304 49.5853 462.341 43.6752C465.388 37.7651 469.756 33.1892 475.444 29.9365C481.132 26.5735 487.832 24.8975 495.555 24.8975C503.278 24.8975 509.88 26.5735 515.369 29.9365C520.958 33.1892 525.227 37.7762 528.165 43.6752C531.212 49.5853 532.73 56.4547 532.73 64.2944C532.73 72.1341 531.201 79.0586 528.165 85.0679C525.216 90.978 520.947 95.6091 515.369 98.9611C509.88 102.214 503.278 103.846 495.555 103.846ZM495.555 89.1807C503.476 89.1807 509.01 87.196 512.168 83.2266C515.314 79.1579 516.888 72.8398 516.888 64.2944C516.888 55.749 515.314 49.4861 512.168 45.5166C509.021 41.5472 503.487 39.5624 495.555 39.5624C487.623 39.5624 481.946 41.5472 478.799 45.5166C475.653 49.4861 474.08 55.749 474.08 64.2944C474.08 72.8398 475.653 79.1579 478.799 83.2266C481.946 87.196 487.535 89.1807 495.555 89.1807Z" fill="#F1F9F6"/>
<path d="M561.489 102.313H545.03V25.956H560.114V47.1816L561.489 47.9424V102.302V102.313ZM561.489 52.8381H557.682V38.0298H560.884C562.413 34.4683 564.9 31.414 568.354 28.8669C571.908 26.2206 576.484 24.8975 582.073 24.8975C587.662 24.8975 591.722 26.0662 594.869 28.4148C598.125 30.7524 600.457 33.8618 601.877 37.7321C603.296 41.6023 604.011 45.9246 604.011 50.71V55.749H587.552V52.6947C587.552 47.6006 586.683 44.0391 584.956 42.0103C583.229 39.9814 579.983 38.956 575.208 38.956C570.434 38.956 566.671 40.0255 564.548 42.1646C562.512 44.2045 561.5 47.766 561.5 52.8491L561.489 52.8381Z" fill="#F1F9F6"/>
<path fill-rule="evenodd" clip-rule="evenodd" d="M15.6666 67.3817C11.5189 67.3817 7.53625 65.6947 4.59876 62.7176C1.66127 59.7294 0 55.6938 0 51.4818V15.8999C0 11.6879 1.66127 7.64122 4.59876 4.66412C7.53625 1.68702 11.5079 0 15.6666 0H50.7184C54.8661 0 58.8487 1.68702 61.7862 4.66412C64.7237 7.64122 66.374 11.6879 66.385 15.8999V49.7947L57.0334 55.2748H88.8397C92.0522 55.2748 95.1327 56.5759 97.4101 58.8804C99.6875 61.1849 100.964 64.3164 100.964 67.5802V90.162C100.964 93.4258 99.6765 96.5573 97.4101 98.8617C95.1327 101.166 92.0522 102.467 88.8397 102.467H66.583C63.3705 102.467 60.29 101.166 58.0126 98.8617C55.7352 96.5573 54.459 93.4258 54.459 90.162V72.8728L63.8436 67.3707H15.6666M54.459 55.2638V12.1069H11.926V55.2748H54.459V55.2638ZM88.8397 67.3707H66.385V90.162C66.385 90.162 66.407 90.2612 66.451 90.3053C66.484 90.3384 66.539 90.3605 66.583 90.3715H88.8397C88.8397 90.3715 88.9387 90.3494 88.9717 90.3053C89.0047 90.2723 89.0267 90.2171 89.0377 90.162V67.5691C89.0377 67.5691 89.0157 67.4699 88.9717 67.4368C88.9387 67.3927 88.8837 67.3707 88.8397 67.3707Z" fill="#F1F9F6"/>
</g>
<defs>
<clipPath id="clip0_2111_49263">
<rect width="604" height="104" fill="white"/>
</clipPath>
</defs>
</svg>
