<svg width="1266" height="596" viewBox="0 0 1266 596" fill="none" xmlns="http://www.w3.org/2000/svg">
<g opacity="0.05" clip-path="url(#clip0_2195_13272)">
<path opacity="0.2" d="M904.124 347.049L903.618 347.341C871.174 365.946 845.612 371.755 838.69 370.221C831.492 368.721 812.592 350.463 793.911 318.106C775.23 285.748 768.85 260.22 771.168 253.267C773.269 246.524 791.176 227.236 823.446 208.478L823.952 208.185C856.396 189.581 881.958 183.771 888.88 185.305C896.078 186.806 915.033 205.159 933.659 237.421C952.285 269.683 958.72 295.306 956.402 302.259C954.356 309.097 936.512 328.349 904.124 347.049Z" stroke="#0357EE" stroke-width="4"/>
<path opacity="0.3" d="M951.919 402.638L951.003 403.28C892.308 444.123 844.605 459.473 831.175 457.72C817.225 456.077 778.241 424.531 737.35 366.132C696.459 307.733 680.109 260.252 683.376 246.638C686.265 233.459 717.176 193.761 775.516 152.655L776.433 152.014C835.127 111.17 882.831 95.8203 896.26 97.5726C910.211 99.2157 949.315 130.934 990.086 189.161C1030.86 247.389 1047.33 295.041 1044.06 308.655C1041.29 322.005 1010.49 361.623 951.919 402.638Z" stroke="#0357EE" stroke-width="4"/>
<path opacity="0.46" d="M999.981 438.84L998.798 439.832C922.979 503.076 859.219 529.942 840.542 529.155C821.162 528.581 763.774 489.917 700.547 414.565C637.32 339.213 609.148 275.908 612.009 256.796C614.404 238.328 652.154 180.015 727.454 116.453L728.637 115.46C804.457 52.2162 868.216 25.3507 886.893 26.1378C906.273 26.7119 963.847 65.5969 1026.89 140.728C1089.93 215.859 1118.29 279.384 1115.43 298.496C1113.22 317.185 1075.61 375.374 999.981 438.84Z" stroke="#0357EE" stroke-width="4"/>
<path opacity="0.6" d="M1059.78 472.279L1058.35 473.709C966.687 564.837 886.606 607.15 862.161 608.257C836.824 609.721 757.583 565.858 666.546 474.82C575.51 383.782 531.558 304.451 533.111 279.202C534.128 254.847 576.709 174.496 667.657 83.0125L669.087 81.583C760.748 -9.54481 840.829 -51.8584 865.274 -52.9648C890.611 -54.4294 970.119 -10.2985 1060.89 80.4721C1151.66 171.243 1195.88 250.841 1194.32 276.09C1193.57 300.712 1151.17 380.884 1059.78 472.279Z" stroke="#0357EE" stroke-width="4"/>
<path opacity="0.8" d="M1132.54 501.546L1130.89 503.507C1025.33 628.57 928.981 690.779 898.267 694.871C866.467 699.512 761.663 652.92 636.769 548.12C511.876 443.321 447.671 348.095 446.842 316.074C445.435 285.239 490.276 179.184 594.901 53.7508L596.546 51.7899C702.109 -73.2729 798.456 -135.482 829.17 -139.573C860.97 -144.215 966.141 -97.3152 1090.67 7.17681C1215.2 111.669 1279.77 207.202 1280.6 239.223C1282.37 270.366 1237.73 376.176 1132.54 501.546Z" stroke="#0357EE" stroke-width="4"/>
<path d="M1213.58 520.723L1211.79 523.276C1097.02 686.169 986.758 771.844 949.936 780.064C911.854 789.067 779.777 743.665 617.149 629.791C454.521 515.916 366.526 407.218 362.12 368.465C357.139 331.211 400.269 197.814 513.859 34.5716L515.647 32.0186C630.415 -130.874 740.68 -216.549 777.501 -224.77C815.583 -233.773 948.138 -188.037 1110.29 -74.4962C1272.44 39.0445 1360.91 148.076 1365.32 186.829C1370.78 224.417 1327.87 357.495 1213.58 520.723Z" stroke="#0357EE" stroke-width="4"/>
<path opacity="0.7" d="M1309.05 532.598L1307.18 535.848C1186.59 743.304 1063.3 857.647 1019.98 871.369C975.235 886.161 811.987 845.536 604.885 725.964C397.783 606.392 280.775 485.208 271.415 439.177C261.522 395.005 299.248 230.445 418.381 22.6943L420.258 19.4441C540.841 -188.011 664.137 -302.355 707.454 -316.076C752.2 -330.869 916.056 -289.892 1122.55 -170.671C1329.04 -51.4501 1446.66 70.0842 1456.02 116.115C1466.52 160.638 1429.03 324.792 1309.05 532.598Z" stroke="#0357EE" stroke-width="4"/>
<path opacity="0.52" d="M1422.17 535.578L1420.27 539.654C1297.99 799.885 1162.73 949.243 1112.44 970.14C1060.56 992.464 861.38 960.985 601.571 839.832C341.761 718.679 189.362 586.21 173.368 532.234C156.932 480.533 184.759 280.149 305.271 19.7154L307.171 15.6396C429.446 -244.592 564.704 -393.95 614.992 -414.846C666.874 -437.171 866.819 -405.336 1125.87 -284.539C1384.91 -163.742 1538.08 -30.9168 1554.07 23.0589C1571.27 75.1154 1543.68 274.991 1422.17 535.578Z" stroke="#0357EE" stroke-width="4"/>
<path opacity="0.4" d="M1529.37 517.177L1527.6 522.036C1413.62 832.377 1273.64 1017.01 1218.13 1045.99C1160.93 1076.75 929.576 1060.64 619.775 947.885C309.974 835.124 122.092 698.644 98.355 638.417C74.3401 580.839 86.1217 348.512 198.065 38.1167L199.833 33.2576C313.817 -277.083 453.795 -461.719 509.311 -490.692C566.51 -521.461 798.769 -505.02 1107.66 -392.591C1416.55 -280.162 1605.34 -143.351 1629.08 -83.1233C1654.01 -25.2151 1642.44 206.505 1529.37 517.177Z" stroke="#0357EE" stroke-width="4"/>
<path opacity="0.3" d="M1643.82 483.626L1642.3 489.322C1543.66 853.176 1402.99 1076.82 1342.8 1115.24C1280.87 1155.88 1016.42 1160.55 653.223 1063.24C290.028 965.916 62.9914 829.542 30.0326 763.484C-2.97841 700.464 -12.6997 435.381 83.6129 71.6675L85.139 65.9721C183.775 -297.882 324.447 -521.523 384.64 -559.949C446.567 -600.582 712.083 -604.975 1074.21 -507.941C1436.34 -410.908 1664.44 -274.248 1697.4 -208.19C1731.48 -144.885 1741.39 119.486 1643.82 483.626Z" stroke="#0357EE" stroke-width="4"/>
<path opacity="0.4" d="M1754.85 431.427L1753.71 437.934C1679.13 853.764 1543.92 1117.17 1480.46 1165.94C1415.29 1217.35 1120.48 1248.4 705.455 1175.21C290.429 1102.03 23.6108 971.957 -19.6431 901.43C-62.6585 834.299 -99.414 539.315 -27.4168 123.869L-26.2695 117.362C48.3077 -298.468 183.52 -561.871 246.973 -610.648C312.146 -662.056 608.173 -692.886 1021.98 -619.919C1435.79 -546.953 1703.83 -416.662 1747.08 -346.134C1791.31 -278.789 1828.21 15.3816 1754.85 431.427Z" stroke="#0357EE" stroke-width="4"/>
<path opacity="0.72" d="M1856.85 360.883L1856.21 368.137C1814.28 831.793 1691.13 1133.94 1626.16 1193.58C1559.54 1256.27 1238.86 1318.67 776.184 1278.19C313.507 1237.71 8.07941 1120.54 -46.1827 1047.27C-99.8566 977.703 -168.545 657.402 -129.408 194.415L-128.773 187.161C-86.8407 -276.496 36.304 -578.643 101.282 -638.283C167.895 -700.978 489.934 -763.252 951.253 -722.891C1412.57 -682.531 1719.36 -565.24 1773.62 -491.97C1828.65 -422.287 1897.42 -102.893 1856.85 360.883Z" stroke="#0357EE" stroke-width="4"/>
<path opacity="0.84" d="M1987.54 273.544V281.755C1986 806.731 1877.36 1158.25 1810.23 1231.64C1741.56 1308.61 1387.45 1410.22 863.719 1410.22C339.986 1410.22 -14.6357 1308.61 -82.7927 1231.64C-149.925 1158.77 -258.566 805.705 -260.103 281.755V273.544C-258.566 -251.432 -149.925 -602.956 -82.7927 -676.34C-14.1232 -753.316 341.523 -854.924 863.719 -854.924C1385.91 -854.924 1742.07 -753.316 1810.23 -676.34C1878.9 -603.469 1987.54 -251.432 1987.54 273.544Z" stroke="#0357EE" stroke-width="4"/>
</g>
<defs>
<clipPath id="clip0_2195_13272">
<rect width="1728" height="1728" fill="white" transform="translate(0 -586)"/>
</clipPath>
</defs>
</svg>
